# File created by Blade
# Date/Time:  Wed Sep 24 19:42:34 2014
# Frame Rate: 120.000 fps
#------------------------------------------------------
:FULLY-SPECIFIED
:DEGREES
1931
root -5.026617 33.019970 -3.524657 7.345639 1.746336 -2.125796
Spine -13.332530 12.625810 -6.447718
Head 22.570776 -13.475306 10.505887
LeftShoulder -13.795209 22.549332 6.722188
LeftArm 24.959123 28.847231 -62.221662
LeftForeArm 2.107740 -0.000000 24.830759
LeftHand -24.608809 -0.000000 -6.604937
LeftHandThumb1 -26.253704 0.000000 33.147579
RightShoulder 87.019473 118.357194 22.650885
RightArm 0.731676 3.967103 52.909571
RightForeArm 1.341050 -0.000000 110.592417
RightHand -3.792921 -0.000000 23.368451
RightHandThumb1 -24.326973 -0.000000 -32.862282
LeftUpLeg -2.165533 4.680136 6.598445
LeftLeg -1.310828 -0.000000 0.000000
LeftFoot -8.372430 5.062816 -19.906293
LeftToeBase 10.421294 -0.000000 -0.000000
RightUpLeg -4.274989 -7.108732 0.851786
RightLeg 2.276515 -0.000000 -0.000000
RightFoot -6.209959 -4.937315 -16.158282
RightToeBase 0.760342 -0.000000 -0.000000
1932
root -5.030646 33.021018 -3.521721 7.362351 1.715023 -2.122852
Spine -13.354042 12.544304 -6.457049
Head 22.533332 -13.398376 10.390260
LeftShoulder -13.854055 22.558407 6.650308
LeftArm 25.008082 28.855349 -62.130921
LeftForeArm 2.153602 -0.000000 24.791150
LeftHand -24.704653 0.000000 -6.484139
LeftHandThumb1 -26.253704 0.000000 33.147579
RightShoulder 88.407138 118.218534 24.157539
RightArm 1.784216 3.263886 52.658017
RightForeArm -0.786456 -0.000000 109.395884
RightHand -3.916790 -0.000000 23.615458
RightHandThumb1 -24.326973 -0.000000 -32.862282
LeftUpLeg -2.161242 4.732187 6.599469
LeftLeg -1.332195 -0.000000 0.000000
LeftFoot -8.339642 5.032424 -19.947354
LeftToeBase 10.440896 -0.000000 -0.000000
RightUpLeg -4.285785 -7.092739 0.855871
RightLeg 2.266494 -0.000000 -0.000000
RightFoot -6.195489 -4.929701 -16.157959
RightToeBase 0.772320 -0.000000 -0.000000
1933
root -5.035282 33.021738 -3.519939 7.392146 1.676373 -2.117149
Spine -13.385092 12.457452 -6.488176
Head 22.465644 -13.324643 10.310736
LeftShoulder -13.930638 22.571565 6.573357
LeftArm 25.040132 28.803888 -62.058819
LeftForeArm 2.260636 -0.000000 24.787141
LeftHand -24.668232 -0.000000 -6.647033
LeftHandThumb1 -26.253704 0.000000 33.147579
RightShoulder 90.040438 118.025190 25.976418
RightArm 2.928275 2.670494 52.284932
RightForeArm -2.922945 -0.000000 108.257056
RightHand -4.183911 -0.000000 24.044823
RightHandThumb1 -24.326973 -0.000000 -32.862282
LeftUpLeg -2.168563 4.778928 6.596651
LeftLeg -1.356369 -0.000000 0.000000
LeftFoot -8.312159 5.028391 -19.967988
LeftToeBase 10.431226 -0.000000 -0.000000
RightUpLeg -4.312487 -7.060746 0.860928
RightLeg 2.259526 -0.000000 -0.000000
RightFoot -6.185752 -4.938895 -16.168842
RightToeBase 0.747190 -0.000000 -0.000000
1934
root -5.039694 33.023079 -3.518003 7.408791 1.642663 -2.110351
Spine -13.407803 12.379021 -6.526910
Head 22.370732 -13.327457 10.154497
LeftShoulder -13.987387 22.631290 6.485047
LeftArm 25.104817 28.703602 -61.982139
LeftForeArm 2.297707 -0.000000 24.770976
LeftHand -24.675055 -0.000000 -6.394317
LeftHandThumb1 -26.253704 0.000000 33.147579
RightShoulder 91.376625 117.938704 27.423190
RightArm 3.805554 1.982407 51.980905
RightForeArm -4.714991 -0.000000 107.129284
RightHand -4.526527 -0.000000 24.747061
RightHandThumb1 -24.326973 -0.000000 -32.862282
LeftUpLeg -2.172720 4.844316 6.592542
LeftLeg -1.362639 -0.000000 0.000000
LeftFoot -8.280505 4.987921 -20.013358
LeftToeBase 10.425683 -0.000000 -0.000000
RightUpLeg -4.327396 -7.052055 0.864033
RightLeg 2.254461 -0.000000 -0.000000
RightFoot -6.179592 -4.934083 -16.196010
RightToeBase 0.754493 -0.000000 -0.000000
1935
root -5.045065 33.024015 -3.516140 7.433748 1.610141 -2.106682
Spine -13.438226 12.313169 -6.562218
Head 22.218343 -13.352347 9.969503
LeftShoulder -13.996794 22.618129 6.392964
LeftArm 25.044436 28.594936 -61.936894
LeftForeArm 2.432623 -0.000000 24.818229
LeftHand -24.714507 -0.000000 -6.330706
LeftHandThumb1 -26.253704 0.000000 33.147579
RightShoulder 93.793648 117.781826 30.265995
RightArm 5.361321 1.524676 51.541238
RightForeArm -6.812639 0.000000 105.926836
RightHand -4.788042 -0.000000 25.432427
RightHandThumb1 -24.326973 -0.000000 -32.862282
LeftUpLeg -2.179549 4.885728 6.595305
LeftLeg -1.381106 -0.000000 0.000000
LeftFoot -8.248988 4.966734 -20.040918
LeftToeBase 10.557393 -0.000000 -0.000000
RightUpLeg -4.345921 -7.034756 0.872234
RightLeg 2.239865 -0.000000 -0.000000
RightFoot -6.174760 -4.928818 -16.215479
RightToeBase 0.766565 -0.000000 -0.000000
1936
root -5.049994 33.025318 -3.514642 7.446501 1.579320 -2.103155
Spine -13.460376 12.238632 -6.599134
Head 22.067862 -13.427340 9.722239
LeftShoulder -13.980387 22.602041 6.317577
LeftArm 24.957964 28.469346 -61.920397
LeftForeArm 2.533551 -0.000000 24.865812
LeftHand -24.757926 -0.000000 -6.325557
LeftHandThumb1 -26.253704 0.000000 33.147579
RightShoulder 96.705410 117.655181 33.657209
RightArm 7.034153 1.266731 51.057873
RightForeArm -8.681202 0.000000 104.749451
RightHand -5.093857 0.000000 26.046475
RightHandThumb1 -24.326973 -0.000000 -32.862282
LeftUpLeg -2.177809 4.944918 6.595650
LeftLeg -1.396501 -0.000000 0.000000
LeftFoot -8.213157 4.968576 -20.003826
LeftToeBase 10.379452 -0.000000 -0.000000
RightUpLeg -4.354902 -7.017340 0.877050
RightLeg 2.232331 -0.000000 -0.000000
RightFoot -6.156623 -4.922672 -16.223342
RightToeBase 0.754025 -0.000000 -0.000000
1937
root -5.055171 33.026251 -3.514072 7.465375 1.554192 -2.098807
Spine -13.504201 12.139860 -6.655856
Head 21.885777 -13.563093 9.406810
LeftShoulder -13.981323 22.609148 6.261478
LeftArm 24.892908 28.324490 -61.935885
LeftForeArm 2.602041 -0.000000 24.886200
LeftHand -24.827985 -0.000000 -6.280716
LeftHandThumb1 -26.253704 0.000000 33.147579
RightShoulder 100.643121 117.610064 38.432658
RightArm 9.385810 1.288895 50.433693
RightForeArm -10.290462 -0.000000 103.476270
RightHand -5.454489 -0.000000 26.581303
RightHandThumb1 -24.326973 -0.000000 -32.862282
LeftUpLeg -2.188748 5.020429 6.597054
LeftLeg -1.401836 -0.000000 0.000000
LeftFoot -8.179810 4.906540 -20.040310
LeftToeBase 10.414318 -0.000000 -0.000000
RightUpLeg -4.370614 -7.010959 0.884638
RightLeg 2.223347 -0.000000 -0.000000
RightFoot -6.152271 -4.921257 -16.250707
RightToeBase 0.766485 -0.000000 -0.000000
1938
root -5.060777 33.026484 -3.513056 7.482851 1.517703 -2.090199
Spine -13.537155 12.059797 -6.717239
Head 21.673787 -13.648372 9.118977
LeftShoulder -14.024812 22.666076 6.165541
LeftArm 24.939526 28.204443 -61.846060
LeftForeArm 2.605328 -0.000000 24.900540
LeftHand -24.816467 -0.000000 -6.241896
LeftHandThumb1 -26.253704 0.000000 33.147579
RightShoulder 103.210959 117.617546 41.458242
RightArm 10.821265 0.991046 49.928230
RightForeArm -11.868850 0.000000 102.303784
RightHand -5.602751 -0.000000 26.843938
RightHandThumb1 -24.326973 -0.000000 -32.862282
LeftUpLeg -2.191797 5.104202 6.591879
LeftLeg -1.417177 -0.000000 0.000000
LeftFoot -8.143620 4.863381 -20.033203
LeftToeBase 10.406823 -0.000000 -0.000000
RightUpLeg -4.389507 -6.991706 0.886613
RightLeg 2.221602 -0.000000 -0.000000
RightFoot -6.152865 -4.914452 -16.260750
RightToeBase 0.771168 -0.000000 -0.000000
1939
root -5.066747 33.027073 -3.513500 7.499246 1.498298 -2.088508
Spine -13.567825 11.908717 -6.778591
Head 21.449585 -13.675805 8.916979
LeftShoulder -14.126962 22.783758 6.051590
LeftArm 25.023975 28.034895 -61.767586
LeftForeArm 2.641539 -0.000000 24.933435
LeftHand -24.840043 -0.000000 -6.068735
LeftHandThumb1 -26.253704 0.000000 33.147579
RightShoulder 111.126913 118.265604 51.350691
RightArm 15.616446 2.419574 48.894821
RightForeArm -13.059616 -0.000000 100.808223
RightHand -5.900193 -0.000000 26.933988
RightHandThumb1 -24.326973 -0.000000 -32.862282
LeftUpLeg -2.210799 5.115951 6.599302
LeftLeg -1.405426 -0.000000 0.000000
LeftFoot -8.138187 4.856894 -20.075606
LeftToeBase 10.440930 -0.000000 -0.000000
RightUpLeg -4.404059 -6.983941 0.895920
RightLeg 2.213089 -0.000000 -0.000000
RightFoot -6.140441 -4.914998 -16.251227
RightToeBase 0.710776 -0.000000 -0.000000
1940
root -5.070800 33.032035 -3.512513 7.427787 1.475428 -2.099306
Spine -13.509323 11.829646 -6.807320
Head 21.296424 -13.782337 8.681755
LeftShoulder -14.121662 22.926515 5.900011
LeftArm 25.122469 27.790191 -61.678987
LeftForeArm 2.762018 -0.000000 24.956117
LeftHand -24.891769 -0.000000 -5.986562
LeftHandThumb1 -26.253704 0.000000 33.147579
RightShoulder 155.949558 153.729124 121.622239
RightArm 74.331168 36.532260 49.234963
RightForeArm -10.126860 -0.000000 89.995526
RightHand -6.087844 0.000000 25.635041
RightHandThumb1 -24.326973 -0.000000 -32.862282
LeftUpLeg -2.136304 5.125140 6.621631
LeftLeg -1.400753 -0.000000 0.000000
LeftFoot -8.096469 4.863457 -20.092970
LeftToeBase 10.555568 -0.000000 -0.000000
RightUpLeg -4.331654 -6.978040 0.904161
RightLeg 2.206000 -0.000000 -0.000000
RightFoot -6.108032 -4.882925 -16.249940
RightToeBase 0.768733 -0.000000 -0.000000
